<svg width="120" height="81" viewBox="0 0 120 81" fill="none" xmlns="http://www.w3.org/2000/svg">
<g clip-path="url(#clip0_26_289)">
<path d="M44.5486 47.9746C43.8558 47.9746 43.142 48.0373 42.4282 48.1419C35.0174 49.3129 29.937 56.2556 31.1126 63.6374C32.2883 71.0192 39.2582 76.0798 46.6899 74.9088C50.2799 74.3441 53.4289 72.4203 55.5703 69.4926C57.7116 66.565 58.5724 62.9891 58.0055 59.3923C56.9559 52.7215 51.1406 47.9537 44.5696 47.9537M44.5276 80.1367C35.5003 80.1367 27.5437 73.5913 26.0951 64.432C24.4996 54.2899 31.4695 44.7542 41.6305 43.1649C51.8124 41.5756 61.3855 48.5183 62.9811 58.6395C64.5766 68.7817 57.6067 78.3174 47.4457 79.9066C46.459 80.053 45.4933 80.1367 44.5276 80.1367Z" fill="#B2B2B2"/>
<path d="M82.7782 58.0958V50.8604H74.6326C70.7907 50.8604 66.9489 51.5505 66.0252 51.9687V51.8641L83.5969 26.2474L83.4709 19.012H57.7537V26.2474H64.8495C69.909 26.2474 74.0448 25.5573 74.9685 25.1391V25.2437L57.7327 50.8604V58.0958H82.7782Z" fill="#7DBBB6"/>
<path d="M16.4801 25.2437C15.0735 25.2437 13.7509 25.5155 12.4913 26.0592C11.2316 26.6029 10.161 27.3348 9.21624 28.2549C8.29251 29.175 7.53674 30.2834 6.9909 31.5381C6.44507 32.8137 6.17215 34.1311 6.17215 35.5531C6.17215 36.9751 6.44507 38.2716 6.9909 39.5263C7.53674 40.781 8.27152 41.8684 9.21624 42.7885C10.14 43.7086 11.2316 44.4614 12.4913 44.9842C13.7509 45.5279 15.0735 45.7998 16.4801 45.7998C17.8866 45.7998 19.2302 45.5279 20.4899 44.9842C21.7705 44.4405 22.8621 43.7086 23.7859 42.7885C24.7096 41.8684 25.4444 40.781 26.0112 39.5263C26.557 38.2925 26.83 36.9542 26.83 35.5531C26.83 34.152 26.557 32.8137 26.0112 31.5381C25.4654 30.2624 24.7306 29.175 23.7859 28.2549C22.8621 27.3348 21.7495 26.6029 20.4899 26.0592C19.2092 25.5155 17.8866 25.2437 16.4801 25.2437ZM3.12806 51.9896C2.22533 51.9896 1.46956 51.6969 0.881735 51.1113C0.293912 50.5258 0 49.773 0 48.8738V3.05642C0 2.19905 0.293912 1.46714 0.881735 0.881615C1.46956 0.296089 2.22533 0.00332642 3.12806 0.00332642C3.9888 0.00332642 4.72358 0.296089 5.31141 0.881615C5.89923 1.46714 6.19314 2.19905 6.19314 3.05642V22.6715C7.64171 21.5005 9.23723 20.6013 11.0007 19.9948C12.7432 19.3884 14.5696 19.0747 16.4801 19.0747C18.7474 19.0747 20.8887 19.5139 22.9251 20.3712C24.9405 21.2286 26.704 22.3997 28.1945 23.9053C29.6851 25.39 30.8817 27.1466 31.7425 29.1541C32.6032 31.1616 33.0441 33.3155 33.0441 35.574C33.0441 37.8325 32.6242 39.9654 31.7425 41.952C30.8607 43.9386 29.7061 45.6952 28.1945 47.18C26.704 48.6647 24.9405 49.8566 22.9251 50.714C20.9097 51.5714 18.7474 52.0105 16.4801 52.0105C14.5696 52.0105 12.7432 51.6969 11.0007 51.0904C9.25822 50.484 7.64171 49.5848 6.19314 48.4137V48.8947C6.19314 49.7939 5.89923 50.5467 5.31141 51.1322C4.72358 51.7178 3.9888 52.0105 3.12806 52.0105" fill="black"/>
<path d="M48.4955 48.8738C48.4955 49.7312 48.1596 50.4631 47.5088 51.0904C46.8579 51.6969 46.0602 52.0105 45.1575 52.0105C44.2547 52.0105 43.457 51.6969 42.8062 51.0904C42.1554 50.484 41.8195 49.7521 41.8195 48.8738V22.1906C41.8195 21.3332 42.1554 20.6013 42.8062 20.0157C43.457 19.4302 44.2547 19.1375 45.1575 19.1375C46.0602 19.1375 46.8579 19.4302 47.5088 20.0157C48.1596 20.6013 48.4955 21.3332 48.4955 22.1906V48.8738ZM45.1575 15.1433C43.9818 15.1433 42.9531 14.7251 42.0924 13.8468C41.2316 12.9894 40.7908 11.9648 40.7908 10.7937C40.7908 9.62267 41.2316 8.53527 42.0924 7.6988C42.9531 6.86234 43.9818 6.44411 45.1575 6.44411C46.3331 6.44411 47.3618 6.86234 48.2225 7.6988C49.0833 8.53527 49.5242 9.55994 49.5242 10.7937C49.5242 12.0275 49.0833 12.9894 48.2225 13.8468C47.3618 14.7042 46.3331 15.1433 45.1575 15.1433Z" fill="black"/>
<path d="M99.0273 70.7683C94.6396 70.7683 90.3779 69.3881 86.767 66.7741C82.2533 63.491 79.2722 58.6604 78.4115 53.1607C77.0679 44.6287 81.2036 36.055 88.7404 31.789C89.958 31.0989 91.4905 31.5171 92.1833 32.73C92.8761 33.9429 92.4563 35.4904 91.2386 36.1804C85.5283 39.4008 82.3793 45.9253 83.408 52.3869C84.7726 61.0025 92.9181 66.8787 101.547 65.5404C105.724 64.8712 109.398 62.6336 111.896 59.225C114.395 55.8165 115.402 51.6341 114.731 47.4727C113.975 42.7049 111.12 38.5853 106.9 36.2013C105.682 35.5113 105.262 33.9638 105.955 32.7718C106.648 31.559 108.202 31.1407 109.419 31.8308C114.983 34.9885 118.761 40.4046 119.748 46.699C120.63 52.1987 119.286 57.6985 115.99 62.2154C112.694 66.7114 107.845 69.6809 102.323 70.5382C101.211 70.7055 100.119 70.7892 99.0273 70.7892" fill="#B2B2B2"/>
<path d="M102.533 43.0813C102.533 43.9387 102.197 44.6706 101.547 45.277C100.896 45.8834 100.098 46.1971 99.1953 46.1971C98.2926 46.1971 97.4948 45.8834 96.844 45.277C96.1932 44.6706 95.8573 43.9387 95.8573 43.0813V22.1906C95.8573 21.3332 96.1932 20.6013 96.844 20.0158C97.4948 19.4302 98.2926 19.1375 99.1953 19.1375C100.098 19.1375 100.896 19.4302 101.547 20.0158C102.197 20.6013 102.533 21.3332 102.533 22.1906V43.0813ZM99.1953 15.1433C98.0197 15.1433 96.991 14.7251 96.1302 13.8468C95.2695 12.9894 94.8286 11.9648 94.8286 10.7937C94.8286 9.62267 95.2695 8.53527 96.1302 7.6988C96.991 6.86234 98.0197 6.44411 99.1953 6.44411C100.371 6.44411 101.4 6.86234 102.26 7.6988C103.121 8.53527 103.562 9.55994 103.562 10.7937C103.562 12.0275 103.121 12.9894 102.26 13.8468C101.4 14.7042 100.371 15.1433 99.1953 15.1433Z" fill="black"/>
</g>
<defs>
<clipPath id="clip0_26_289">
<rect width="120" height="80.1333" fill="white" transform="translate(0 0.00332642)"/>
</clipPath>
</defs>
</svg>
